<?xml version="1.0" standalone="no"?>
<!DOCTYPE svg PUBLIC "-//W3C//DTD SVG 1.1//EN" "http://www.w3.org/Graphics/SVG/1.1/DTD/svg11.dtd">
<svg class="icon" height="512" viewBox="0 0 1024 1024" version="1.1" xmlns="http://www.w3.org/2000/svg">
  <path id="deer" d="M890.648 172.28c-5.307-17.618-0.02-56.185-3.023-80.705-3.01-24.518-27.38-82.013-33.94-80.103-6.554 1.912-2.336 34.74 2.561 52.974 4.898 18.238 16.753 120.633 10.277 120.386-6.468-0.245-46.633-130.413-54.831-128.693-8.204 1.723 17.934 82.923 24.092 114.807 6.159 31.888 12.746 109.168-16.818 111.092-29.564 1.92-31.445-55.475-35.992-69.505-4.548-14.03-26.607-65.587-39.314-62.386-12.706 3.202 34.39 84.825 6.76 106.141-27.638 21.317-142.897-89.342-125.274-53.976 37.563 69.171 174.903 132.392 184.692 135.69 9.79 3.293 4.832 43.399-29.22 59.643-55.28 19.627-115.128 55.732-143.537 70.79-28.415 15.06-30.317-45.008-31.466-58.143-1.155-13.136-9.558-32.779-11.79-40.871-2.236-8.093-5.702-27.165-9.695-25.792-3.994 1.373-4.647 18.635-2.284 29.912 2.363 11.277 0.693 51.758-3.928 73.066-4.626 21.306 1.34 44.666-2.224 58.26-1.841 7.003-11.994 16.31-21.412 23.696-6.066-1.262-9.215 0.766-12.634 5.119-6.441 8.191-20.277 6.37-29.934 6.37s-23.498 1.821-29.933-6.37c-3.334-4.238-6.41-6.265-12.171-5.202-9.386-7.373-19.472-16.64-21.3-23.613-3.57-13.594 2.402-36.954-2.225-58.26-4.627-21.308-6.297-61.789-3.928-73.066 2.363-11.277 1.71-28.538-2.284-29.912-3.993-1.372-7.465 17.7-9.697 25.792-2.23 8.092-10.633 27.735-11.788 40.87-1.148 13.136-3.057 73.205-31.466 58.145-28.415-15.06-88.263-51.164-143.537-70.791-34.052-16.244-39.016-56.35-29.227-59.644 9.788-3.297 147.134-66.518 184.698-135.69 17.625-35.366-97.643 75.294-125.272 53.977-27.63-21.316 19.464-102.94 6.759-106.141-12.706-3.201-34.766 48.356-39.313 62.386-4.555 14.029-6.43 71.425-35.993 69.505-29.565-1.924-22.978-79.204-16.825-111.092 6.158-31.884 32.296-113.085 24.098-114.807-8.197-1.72-48.362 128.448-54.838 128.693-6.468 0.247 5.387-102.148 10.285-120.386 4.897-18.235 9.11-51.062 2.555-52.974-6.555-1.91-30.93 55.584-33.934 80.103-3.003 24.521 2.277 63.089-3.023 80.705-5.3 17.614-4.666 80.89-0.554 102.088 4.112 21.199 3.874 68.24 2.97 87.848-0.905 19.61 29.107 56.769 72.138 82.923 43.03 26.152 160.652 57.26 191.596 86.587 10.64 10.08 17.644 17.373 21.367 23.71-3.69 3.464-4.1 5.828-4.1 8.88 0 6.067 8.046 25.175-18.666 3.944-26.72-21.234-27.036-24.264-93.015-35.184-65.98-10.92-22.852 36.096-9.98 58.541 12.878 22.446 18.343 40.34 58.897 53.382s68.237-4.547 68.237 8.192 6.759 45.798 5.465 48.528c-1.287 2.732-46.667 157.728-46.667 170.771s37.334 123.756 130.673 123.756c93.34 0 130.672-110.713 130.672-123.756s-45.386-168.038-46.673-170.771c-1.288-2.73 5.471-35.788 5.471-48.528 0-12.74 27.683 4.851 68.231-8.192 40.555-13.043 46.026-30.936 58.905-53.382 12.871-22.445 56-69.462-9.98-58.541-65.98 10.92-66.304 13.95-93.016 35.184-26.712 21.23-18.666 2.123-18.666-3.943 0-2.945-0.389-5.248-3.723-8.518 3.664-6.423 10.72-13.799 21.564-24.073 30.944-29.327 148.567-60.435 191.597-86.587 43.023-26.155 73.043-63.313 72.139-82.923-0.905-19.608-1.142-66.65 2.97-87.848 4.107-21.198 4.742-84.474-0.56-102.088z" fill="#000000" />
</svg>
